<?xml version="1.0" encoding="UTF-8"?>
<svg id="Vrstva_1" xmlns="http://www.w3.org/2000/svg" version="1.1" viewBox="0 0 3151.91 3568.7">
  <!-- Generator: Adobe Illustrator 30.2.1, SVG Export Plug-In . SVG Version: 2.1.1 Build 1)  -->
  <defs>
    <style>
      .st0 {
        fill: #1d1d1b;
      }
    </style>
  </defs>
  <path class="st0" d="M2135.57,2431.04c-37.66,25.11-80.63,46.59-131.18,62.77-80.63,27.1-175.8,41.32-287.18,43.29v-310.96c30.4-5.27,55.52-12.55,75.34-25.09,46.59-25.11,70.05-66.44,70.05-122.27,0-102.45-73.69-154.33-222.73-154.33h-208.51v-294.77h143.75c142.1,0,215.47-48.58,215.47-147.36s-73.38-143.43-215.47-143.43h-716.74v-308.97h772.6c191.99,0,339.37,35.69,438.18,107.74,102.45,70.05,151,166.87,151,287.49,0,71.7-16.19,136.47-52.2,191.99-34.04,57.49-84.27,102.45-149.04,134.82,86.24,30.4,152.68,77.33,201.23,141.76,50.23,64.79,73.69,142.1,73.69,232,0,132.83-52.2,233.29-158.28,305.33M1571.48,2538.78h-713.1v-1054.49h356.55v747.15h356.55v307.34ZM372.61,3132.59h2406.69V436.1H372.61v2696.49Z"/>
</svg>