<svg role="img" xmlns="http://www.w3.org/2000/svg" viewBox="0 0 50 36">
  <g>
    <g>
      <path d="M25,10.02c-.55,0-1,.45-1,1v2.58c-.37-.18-.83-.13-1.14.18-.39.39-.39,1.02,0,1.41l1.44,1.43c.09.09.2.17.33.22.1.04.21.06.31.06.02,0,.04.01.07.01s.04-.01.07-.01c.11,0,.21-.02.31-.06.12-.05.23-.12.33-.22l1.44-1.43c.39-.39.39-1.02,0-1.41-.31-.31-.77-.36-1.14-.18v-2.58c0-.55-.45-1-1-1Z"/>
      <path d="M4.61,7.75c.05.14.1.28.15.43.19.57.73.94,1.31.94.12,0,.24-.02.37-.05,1.16-.32,2.98-.69,5.01-.69s3.85.38,5.01.69h0c.71.19,1.45-.2,1.68-.9.03-.08.05-.15.08-.22.03.08.06.15.08.23.19.58.73.94,1.31.94.12,0,.24-.02.37-.05,1.16-.32,2.98-.69,5.01-.69s3.85.38,5.01.69c.71.19,1.45-.2,1.68-.9.02-.08.05-.15.08-.22.03.08.06.15.08.23.19.57.73.94,1.31.94.12,0,.24-.02.37-.05,1.16-.32,2.98-.69,5.01-.69s3.85.38,5.01.69c.72.19,1.46-.2,1.68-.9.05-.15.1-.3.16-.45.18-.49.39-1.05.52-1.95.27-1.85-.35-3.69-1.64-4.81-1.01-.87-2.28-1.17-3.46-.82-.52.13-.93.23-1.25.32-.54.14-.84.22-1.03.22s-.49-.08-1.04-.22c-.32-.09-.73-.19-1.2-.31-1.22-.36-2.5-.07-3.5.81-.42.37-.76.82-1.04,1.31-.27-.5-.61-.95-1.03-1.31-1-.87-2.28-1.17-3.46-.82-.52.13-.92.23-1.25.32-.54.14-.84.22-1.04.22s-.49-.08-1.04-.22c-.32-.09-.73-.19-1.2-.31-1.22-.36-2.5-.07-3.5.81-.42.37-.76.82-1.04,1.31-.27-.5-.61-.95-1.04-1.31-1-.87-2.28-1.17-3.46-.82-.52.13-.92.23-1.25.32-.54.14-.84.22-1.03.22s-.49-.08-1.04-.22c-.32-.09-.73-.19-1.2-.31-1.22-.36-2.5-.07-3.5.81-1.28,1.11-1.91,2.96-1.64,4.81.13.9.34,1.47.53,1.97ZM34.12,2.47c.26-.23.65-.46,1.16-.46.16,0,.33.02.51.08.51.12.9.23,1.21.31,1.41.37,1.68.37,3.09,0,.31-.08.71-.19,1.26-.32.72-.21,1.28.1,1.62.4.76.66,1.14,1.84.97,3.01-.1.68-.25,1.09-.41,1.52-1.27-.31-3.04-.62-4.99-.62s-3.72.31-4.99.62c-.16-.43-.31-.85-.41-1.52-.17-1.16.21-2.34.97-3.01ZM20.57,2.47c.26-.23.65-.46,1.16-.46.16,0,.33.02.51.08.51.12.9.23,1.21.31,1.41.37,1.68.37,3.09,0,.31-.08.71-.19,1.26-.32.72-.21,1.28.1,1.62.4.76.66,1.14,1.84.97,3.01-.1.68-.25,1.09-.41,1.52-1.27-.31-3.04-.62-4.99-.62s-3.72.31-4.99.62c-.16-.43-.31-.85-.41-1.52-.17-1.16.21-2.34.97-3.01ZM7.02,2.47c.26-.23.65-.46,1.16-.46.16,0,.33.02.51.08.51.12.9.23,1.21.31,1.41.37,1.68.37,3.09,0,.31-.08.71-.19,1.26-.32.72-.21,1.28.1,1.62.4.76.66,1.14,1.84.97,3.01-.1.68-.25,1.09-.41,1.52-1.27-.31-3.04-.62-4.99-.62s-3.72.31-4.99.62c-.16-.43-.31-.85-.41-1.52-.17-1.16.21-2.34.97-3.01Z"/>
      <path d="M45.48,17.19c-.08-.47-.15-.89-.22-1.16-.14-.58-.59-1.03-1.17-1.18-.37-.1-.51-.21-.53-.27,0-1.91-1.01-3.06-3.06-3.51-1.06-.25-2.84-.25-3.88,0-2.07.46-3.08,1.61-3.08,3.53-.02.03-.16.15-.53.25-.58.15-1.03.61-1.17,1.18-.11.46-.26,1.35-.38,2.23-1.29.12-3.89.34-6.48.34-2.58,0-5.15-.22-6.43-.34-.13-.88-.27-1.76-.38-2.23-.14-.58-.59-1.03-1.17-1.18,0,0,0,0,0,0-.37-.1-.51-.21-.53-.27,0-1.91-1.01-3.06-3.06-3.51-1.06-.25-2.84-.25-3.88,0-2.07.46-3.08,1.6-3.08,3.53-.02.03-.16.15-.53.25-.58.15-1.03.6-1.17,1.18-.07.27-.14.69-.22,1.16-2.66.79-4.52,3.2-4.52,6.01v9.28c0,1.94,1.64,3.53,3.65,3.53h42.69c2.01,0,3.65-1.58,3.65-3.53v-9.28c0-2.81-1.87-5.22-4.52-6.01ZM33.74,16.71c1.62-.52,1.8-1.66,1.8-2.14,0-.85.22-1.27,1.52-1.56.77-.18,2.21-.18,2.99,0,1.29.28,1.51.71,1.51,1.56,0,.48.18,1.62,1.8,2.14.2.97.5,3.21.57,4.01.1,1.08-.21,2.48-.88,4.01-.06-.16-.12-.34-.18-.53-.52-1.52-1.31-3.82-2.99-5.33-.76-.69-1.92-.69-2.68,0-1.68,1.51-2.47,3.81-2.99,5.33-.06.19-.13.37-.18.53-.67-1.53-.98-2.93-.88-4.01.08-.8.38-3.04.57-4.01ZM6.64,16.71c1.62-.51,1.8-1.66,1.8-2.14,0-.85.22-1.27,1.52-1.56.77-.18,2.21-.18,2.99,0,1.29.28,1.51.71,1.51,1.56,0,.48.18,1.62,1.8,2.14.2.97.5,3.2.57,4.01.1,1.08-.21,2.48-.88,4.01-.06-.16-.12-.34-.18-.53-.52-1.52-1.31-3.82-2.99-5.33-.76-.69-1.91-.69-2.68,0-1.68,1.51-2.47,3.81-2.99,5.33-.06.19-.13.37-.18.53-.67-1.53-.98-2.93-.88-4.01.08-.81.38-3.04.57-4.01ZM48,32.47c0,.84-.74,1.53-1.65,1.53H3.65c-.91,0-1.65-.68-1.65-1.53v-9.28c0-1.58.87-2.99,2.2-3.73-.06.45-.1.83-.12,1.07-.19,2.02.63,4.2,1.35,5.68.29.6.88.96,1.54.96,0,0,.01,0,.02,0,.67,0,1.25-.39,1.54-.99.17-.36.32-.81.5-1.34.48-1.4,1.14-3.33,2.44-4.49,1.3,1.16,1.95,3.09,2.43,4.49.18.52.33.98.5,1.34.28.61.87.99,1.54.99,0,0,.01,0,.02,0,.66,0,1.25-.37,1.54-.97.72-1.47,1.54-3.66,1.35-5.68,0-.07-.02-.16-.03-.25,1.41.13,3.77.31,6.17.31,2.41,0,4.8-.18,6.22-.31,0,.09-.02.19-.03.25-.19,2.02.63,4.2,1.35,5.68.29.6.88.97,1.54.97,0,0,.01,0,.02,0,.67,0,1.25-.39,1.54-.99.17-.36.32-.82.5-1.34.48-1.4,1.14-3.32,2.44-4.49,1.29,1.16,1.95,3.08,2.43,4.49.18.52.33.98.5,1.34.28.61.87.99,1.54.99,0,0,.01,0,.02,0,.66,0,1.25-.37,1.54-.97.72-1.47,1.54-3.66,1.35-5.68-.02-.24-.07-.63-.12-1.07,1.33.75,2.2,2.15,2.2,3.73v9.28Z"/>
    </g>
  </g>
</svg>