<svg role="img" xmlns="http://www.w3.org/2000/svg" viewBox="0 0 36 50">
  <g>
    <g>
      <path d="M21.74,2.96c3.15-1.52,6.34-1.24,8.99.79,3.39,2.59,4.25,7.4,2.07,11.17h-10.75c-.55,0-1,.45-1,1s.45,1,1,1h11.84l.3-.45c3.1-4.69,2.11-10.98-2.24-14.31-3.24-2.47-7.27-2.83-11.08-1-.5.24-.71.84-.47,1.33.24.5.84.71,1.34.47Z"/>
      <path d="M2.1,16.91h11.78c.55,0,1-.45,1-1s-.45-1-1-1H3.2C1.02,11.15,1.87,6.33,5.26,3.74c3.4-2.6,7.81-2.27,11.54.88.09.07,2.29,1.78,5.85,2.32.54.08,1.06-.29,1.14-.84.08-.55-.29-1.06-.84-1.14-3-.45-4.88-1.89-4.88-1.89C13.68-.63,8.18-1,4.05,2.15-.31,5.48-1.29,11.77,1.8,16.46l.3.45Z"/>
      <path d="M33.36,26.53h-2.86l-1.23-4.08c-.23-.77-1.02-1.36-1.83-1.36h-2.81c-.55,0-1,.45-1,1s.45,1,1,1h2.75l1.04,3.43h-11.58c-.55,0-1,.45-1,1s.45,1,1,1h14.77c-1.5,2.66-4.31,8.4-4.7,14.47,0,.15-.03,3.56-3.06,4.59-.04.01-.07.02-.1.04-.46.21-1.13.42-1.3.38-.49-.06-.68-2.1-.58-6.07.02-.55.15-5.44-1.78-7.44-1.15-1.19-3.02-1.19-4.17,0-1.93,2-1.8,6.89-1.78,7.42.1,3.98-.09,6.02-.58,6.08-.19.05-.83-.16-1.3-.38-.03-.02-.07-.03-.1-.04-3.03-1.02-3.06-4.44-3.06-4.66-.39-6.02-3.2-11.74-4.7-14.4h6.02c.55,0,1-.45,1-1s-.45-1-1-1h-2.83l1.03-3.43h2.75c.55,0,1-.45,1-1s-.45-1-1-1h-2.81c-.82,0-1.6.58-1.83,1.35l-1.22,4.08h-2.86c-.37,0-.71.2-.88.52s-.16.72.04,1.02c.05.07,4.81,7.43,5.3,14.9,0,.2,0,4.97,4.37,6.48.35.16,1.28.54,2.07.54.09,0,.17,0,.26-.01,2.37-.29,2.46-3.26,2.34-8.13-.07-1.75.21-4.92,1.22-5.97.4-.41.89-.41,1.29,0,1.01,1.05,1.29,4.22,1.22,5.98-.13,4.86-.03,7.83,2.34,8.12.84.1,1.94-.35,2.33-.53,4.36-1.51,4.37-6.27,4.36-6.4.49-7.55,5.25-14.91,5.3-14.98.2-.31.22-.7.04-1.02s-.51-.52-.88-.52Z"/>
      <path d="M13.89,19.78c-.39.39-.38,1.03.01,1.41l3.39,3.32c.19.19.45.29.7.29s.51-.1.7-.29l3.41-3.34c.39-.39.4-1.02.01-1.41s-1.02-.4-1.41-.01l-1.72,1.69v-8.11c0-.55-.46-1-1.01-1h0c-.55,0-1,.45-1,1v8.08s-1.66-1.64-1.66-1.64c-.39-.39-1.03-.38-1.41.01Z"/>
    </g>
  </g>
</svg>