<svg role="img" xmlns="http://www.w3.org/2000/svg" xmlns:xlink="http://www.w3.org/1999/xlink" width="50.001" height="41.999" viewBox="0 0 50.001 41.999">
  <defs>
    <clipPath id="clip-path">
      <rect width="50.001" height="41.999" transform="translate(0 0)" fill="currentColor"/>
    </clipPath>
  </defs>
  <g transform="translate(0 0)" clip-path="url(#clip-path)">
    <path d="M49.3,29.25a3.981,3.981,0,0,0-3.716-2.512h-.15c.76-1.989,1.488-4.736,1.031-6.682a3.873,3.873,0,0,0-2.288-2.89,4.884,4.884,0,0,0-4.134.362,2.994,2.994,0,0,1-3.151-.011,4.859,4.859,0,0,0-4.114-.35,3.874,3.874,0,0,0-2.288,2.888c-.5,2.129.416,5.223,1.244,7.225a15.6,15.6,0,0,1-13.467,0c.827-2,1.745-5.094,1.245-7.224a3.876,3.876,0,0,0-2.288-2.89,4.883,4.883,0,0,0-4.134.362,2.983,2.983,0,0,1-3.151-.011,4.864,4.864,0,0,0-4.115-.351,3.876,3.876,0,0,0-2.288,2.89c-.457,1.946.271,4.693,1.032,6.682h-.15A3.98,3.98,0,0,0,.7,29.25a9.806,9.806,0,0,0-.528,5.481A8.96,8.96,0,0,0,8.979,42H41.022a8.962,8.962,0,0,0,8.806-7.268A9.817,9.817,0,0,0,49.3,29.25M32.437,20.513a1.949,1.949,0,0,1,1.1-1.5,2.91,2.91,0,0,1,2.323.219,4.986,4.986,0,0,0,5.255-.019,2.907,2.907,0,0,1,2.294-.2,1.946,1.946,0,0,1,1.1,1.5c.381,1.617-.458,4.408-1.235,6.224H33.673c-.778-1.816-1.617-4.607-1.236-6.225m-26.953,0a1.946,1.946,0,0,1,1.1-1.5,2.9,2.9,0,0,1,2.323.219,4.99,4.99,0,0,0,5.255-.019,2.9,2.9,0,0,1,2.3-.2,1.949,1.949,0,0,1,1.1,1.5c.38,1.619-.459,4.41-1.237,6.225H6.719c-.777-1.816-1.616-4.607-1.235-6.225M47.863,34.358A6.958,6.958,0,0,1,41.022,40H8.979a6.96,6.96,0,0,1-6.841-5.641,7.828,7.828,0,0,1,.421-4.366,1.989,1.989,0,0,1,1.859-1.254h12.3a17.594,17.594,0,0,0,16.565,0h12.3a1.988,1.988,0,0,1,1.858,1.254,7.811,7.811,0,0,1,.421,4.366" fill="currentColor"/>
    <path d="M19.644,4.669a1,1,0,0,0,1.349-.424A4.18,4.18,0,1,1,27.26,9.464c-1.8,1.378-3.553,2.976-3.556,5.985l0,1.312a1.015,1.015,0,0,0,1,1,1,1,0,0,0,1-1l0-1.313c0-1.925.935-2.992,2.773-4.4a6.135,6.135,0,0,0,2.379-5.587A6.191,6.191,0,0,0,19.221,3.319a1,1,0,0,0,.423,1.35" fill="currentColor"/>
    <path d="M24.676,18.565a1.047,1.047,0,1,0,1.051,1.047,1.049,1.049,0,0,0-1.051-1.047" fill="currentColor"/>
  </g>
</svg>
