<svg role="img" xmlns="http://www.w3.org/2000/svg" viewBox="0 0 49 50"><defs><style>.cls-1{fill:currentColor;stroke-width:0px;}</style></defs><g><path class="cls-1" d="M46.56,29.17l-2.83-1.89-1.89-2.83c-.37-.56-1.29-.56-1.66,0l-1.89,2.83-2.83,1.89c-.28.19-.45.5-.45.83s.17.65.45.83l2.83,1.89,1.89,2.83c.19.28.5.45.83.45s.65-.17.83-.45l1.89-2.83,2.83-1.89c.28-.19.45-.5.45-.83s-.17-.65-.45-.83ZM42.45,31.17c-.11.07-.2.17-.28.28l-1.17,1.75-1.17-1.75c-.07-.11-.17-.2-.28-.28l-1.75-1.17,1.75-1.17c.11-.07.2-.17.28-.28l1.17-1.75,1.17,1.75c.07.11.17.2.28.28l1.75,1.17-1.75,1.17Z"/><path class="cls-1" d="M48.37,11.57l-7.82-3.13-3.13-7.82c-.15-.38-.52-.63-.93-.63s-.78.25-.93.63l-3.13,7.82-1.67.67c-.52-.43-1.09-.81-1.72-1.08-2.66-.96-5.6-.73-8.07.64-1.28.78-2.72,1.16-4.17,1.16-1.45,0-2.9-.38-4.17-1.16-2.47-1.37-5.42-1.6-8.07-.64-2.24.98-3.84,3.02-4.28,5.42-1.26,5.26,1.89,12.66,3.87,16.61.5.99.75,2.1.71,3.21-.15,4.25.35,11.99,5.41,16.18.99.83,2.46.7,3.29-.28.26-.31.44-.69.51-1.09.56-3.29.59-6.65.11-9.95-.34-1.2.24-2.47,1.37-2.99.4-.19.83-.28,1.25-.28s.86.09,1.25.28c1.13.52,1.71,1.79,1.37,2.99-.49,3.3-.45,6.66.11,9.95.07.4.25.78.51,1.09.83.99,2.3,1.11,3.29.28,5.05-4.18,5.56-11.93,5.41-16.18-.04-1.11.21-2.22.71-3.21,1.36-2.71,3.26-7.03,3.92-11.19l2.2,5.5c.15.38.52.63.93.63s.78-.25.93-.63l3.13-7.82,7.82-3.13c.38-.15.63-.52.63-.93s-.25-.78-.63-.93ZM27.68,29.16c-.65,1.3-.97,2.73-.92,4.18.11,3.12-.13,10.79-4.68,14.57-.1.09-.23.11-.35.07-.12-.04-.21-.15-.22-.28-.51-3.08-.54-6.22-.09-9.31.46-2.07-.57-4.18-2.49-5.07-.67-.32-1.39-.47-2.11-.47-.72,0-1.44.16-2.11.47-1.92.9-2.96,3.01-2.49,5.07.45,3.09.42,6.23-.09,9.31-.02.13-.1.23-.22.28-.12.04-.26.02-.35-.07-4.56-3.78-4.79-11.45-4.68-14.57.05-1.45-.27-2.89-.92-4.18-1.5-2.98-4.87-10.42-3.72-15.24.3-1.78,1.46-3.3,3.11-4.05,2.09-.74,4.4-.54,6.33.54,1.57.94,3.35,1.41,5.15,1.41,1.79,0,3.58-.46,5.15-1.41,1.94-1.08,4.24-1.27,6.33-.54.09.04.16.09.25.14l-3.9,1.56c-.38.15-.63.52-.63.93s.25.78.63.93l6.99,2.8c-.04,4.63-2.66,10.4-3.94,12.93ZM39.42,14.86c-.25.1-.46.3-.56.56l-2.36,5.89-2.36-5.89c-.1-.25-.3-.46-.56-.56l-5.89-2.36,5.89-2.36c.25-.1.46-.3.56-.56l2.36-5.89,2.36,5.89c.1.25.3.46.56.56l5.89,2.36-5.89,2.36Z"/></g></svg>