<svg role="img" xmlns="http://www.w3.org/2000/svg" viewBox="0 0 33.62 42.55"><defs><style>.cls-1{fill:currentColor;stroke-width:0px;}</style></defs><g><path class="cls-1" d="M33.33,6.01c-.43-2.41-2.04-4.44-4.28-5.42-2.66-.96-5.6-.73-8.07.64-1.28.78-2.72,1.16-4.17,1.16-1.45,0-2.9-.38-4.17-1.16C10.17-.14,7.22-.38,4.57.59,2.32,1.57.72,3.6.29,6.01c-1.26,5.26,1.89,12.66,3.87,16.61.5.99.75,2.1.71,3.21-.15,4.25.35,11.99,5.41,16.18.99.83,2.46.7,3.29-.28.26-.31.44-.69.51-1.09.56-3.29.59-6.65.11-9.95-.34-1.2.24-2.47,1.37-2.99.4-.19.83-.28,1.25-.28s.86.09,1.25.28c1.13.52,1.71,1.79,1.37,2.99-.49,3.3-.45,6.66.11,9.95.07.4.25.78.51,1.09.83.99,2.3,1.11,3.29.28,5.05-4.18,5.56-11.93,5.41-16.18-.04-1.11.21-2.22.71-3.21,1.99-3.94,5.14-11.35,3.87-16.61ZM27.68,21.71c-.65,1.3-.97,2.73-.92,4.18.11,3.12-.13,10.79-4.68,14.57-.1.09-.23.11-.35.07-.12-.04-.21-.15-.22-.28-.51-3.08-.54-6.22-.09-9.31.46-2.07-.57-4.18-2.49-5.07-.67-.32-1.39-.47-2.11-.47-.72,0-1.44.16-2.11.47-1.92.9-2.96,3.01-2.49,5.07.45,3.09.42,6.23-.09,9.31-.02.13-.1.23-.22.28-.12.04-.26.02-.35-.07-4.56-3.78-4.79-11.45-4.68-14.57.05-1.45-.27-2.89-.92-4.18-1.5-2.98-4.87-10.42-3.72-15.24.3-1.78,1.46-3.3,3.11-4.05,2.09-.74,4.4-.54,6.33.54,1.39.84,2.95,1.28,4.54,1.37l-1.39,1.98c-.16.24-.22.53-.15.81.07.28.25.51.5.65l1.39.74-1.76,2.77c-.3.47-.16,1.08.31,1.38,0,0,0,0,0,0h0c.47.3,1.08.16,1.38-.31h0s2.35-3.69,2.35-3.69c.3-.47.16-1.08-.31-1.38-.02-.01-.05-.03-.07-.04l-1.35-.71,1.66-2.37c1.11-.22,2.2-.6,3.19-1.2,1.94-1.08,4.24-1.27,6.33-.54,1.65.75,2.81,2.26,3.11,4.05,1.15,4.81-2.22,12.26-3.72,15.24Z"/></g></svg>