<svg role="img" xmlns="http://www.w3.org/2000/svg" version="1.1" viewBox="0 0 50 50">
  <!-- Generator: Adobe Illustrator 29.4.0, SVG Export Plug-In . SVG Version: 2.1.0 Build 152)  -->
  <defs>
    <style>
      .st0 {
        fill: currentColor;
      }
    </style>
  </defs>
  <path class="st0" d="M41.5,32c-3.5-1.5-6-1.5-7.4-.1-.4.4-1.4,1.9-2.1,3.6-.7-1.7-1.6-3.2-2.1-3.6-2.8-2.8-8.7-.3-10.5.6-3-1.4-6.7-2.5-8.6-.6-.4.4-1.4,1.9-2.1,3.6-.7-1.7-1.6-3.2-2.1-3.6-1.2-1.2-3.2-1.6-5.9-1-.5.1-.9.6-.8,1.2.1.5.6.9,1.2.8,1.3-.3,3.1-.4,4,.5.7.7,2.4,4,2.5,6.3,0,0,0,.1,0,.2,0,.4,0,.8-.2,1.1-.3.7-.7,1.4-1.2,2.2-.3.5-.1,1.1.3,1.4.2,0,.3.1.5.1.3,0,.7-.2.9-.5.3-.4.5-.8.7-1.2.2.4.5.8.7,1.2.2.3.5.5.9.5s.4,0,.5-.1c.5-.3.6-.9.3-1.4-.5-.8-.9-1.5-1.2-2.2-.2-.3-.2-.7-.2-1.1,0,0,0-.1,0-.2,0-2.3,1.8-5.7,2.5-6.3,1.5-1.5,7.1,1.1,10.4,3.3.5.3,1.1.2,1.4-.3.3-.5.2-1.1-.3-1.4-.4-.2-1.1-.7-2-1.2,2.2-.9,5.5-1.7,6.8-.4.7.7,2.4,4,2.5,6.3,0,0,0,.1,0,.2,0,.4,0,.8-.2,1.1-.3.7-.7,1.4-1.2,2.2-.3.5-.1,1.1.3,1.4.2,0,.3.1.5.1.3,0,.7-.2.9-.5.3-.4.5-.8.7-1.2.2.4.5.8.7,1.2.2.3.5.5.9.5s.4,0,.5-.1c.5-.3.6-.9.3-1.4-.5-.8-.9-1.5-1.2-2.2-.2-.3-.2-.7-.2-1.1,0,0,0-.1,0-.2,0-2.3,1.8-5.7,2.5-6.3.7-.7,2.6-.5,5.2.6.5.2,1.1,0,1.3-.5.2-.5,0-1.1-.5-1.3Z"/>
  <path class="st0" d="M41.1,47.9c-1.8,0-3.6-.3-5.4-.6-2.5-.4-5-.4-7.5,0-5.1.8-10.6.8-15.7,0-2.5-.4-5-.4-7.5,0-1.3.2-2.7.4-4.1.5-.6,0-1,.5-.9,1.1s.5,1,1.1.9c1.4-.1,2.8-.3,4.2-.5,2.3-.4,4.6-.4,6.9,0,2.7.4,5.4.7,8.2.7s5.5-.2,8.2-.7c2.3-.4,4.6-.4,6.9,0,1.8.3,3.7.5,5.6.6.5,0,1-.4,1.1-.9,0-.6-.4-1-.9-1.1Z"/>
  <path class="st0" d="M49.8,7.4c-.3-.5-.9-.6-1.4-.3l-9.9,6.8-3.3-3.8L43.7,1.7c.4-.4.4-1,0-1.4-.4-.4-1-.4-1.4,0l-9,9.1c-.4.4-.4,1,0,1.4l1.7,2-6.8,5.7c-2.5-2.1-6.3-2.1-8.9,0-2.8,2.4-3.2,6.6-.9,9.5.2.2.5.4.8.4s.5,0,.6-.2c.4-.4.5-1,.1-1.4-1.7-2-1.4-5,.6-6.7,2-1.7,5.1-1.5,6.9.5.4.4,1,.4,1.4,0l7.5-6.3,1.5,1.7c.2.2.5.3.8.3s.4,0,.6-.2l10.6-7.3c.5-.3.6-.9.3-1.4Z"/>
</svg>