<svg role="img" xmlns="http://www.w3.org/2000/svg" xmlns:xlink="http://www.w3.org/1999/xlink" width="50" height="48" viewBox="0 0 50 48">
  <defs>
    <clipPath id="clip-path">
      <rect width="50" height="48" transform="translate(0 0)" fill="currentColor"/>
    </clipPath>
  </defs>
  <g transform="translate(0 0)">
    <g clip-path="url(#clip-path)">
      <path d="M49.667,21.286l-.014-.061a15.694,15.694,0,0,0-1.3-4.164c-1.039-1.84-3.817-1.829-5.319-1.816l-2.522.017c.966-3.135,1.534-6.5.874-9.266A7.254,7.254,0,0,0,37.135.6a9.47,9.47,0,0,0-7.976.679,7.8,7.8,0,0,1-8.121-.03A9.457,9.457,0,0,0,13.111.6,7.257,7.257,0,0,0,8.859,6c-1.241,5.211,1.853,12.547,3.808,16.457a6.6,6.6,0,0,1,.7,3.182c0,.142-.007.3-.01.447l-.99-.821a9.986,9.986,0,0,1-3.58-7.127,2.466,2.466,0,0,0-1.648-2.2c-1.587-.562-3.858-.548-5.128.57-.948.834-1.225,2.351-1.492,3.82-.06.331-.119.655-.184.954a14.43,14.43,0,0,0-.246,4.685L.6,30.591A17.848,17.848,0,0,0,7.829,43.2c4.459,3.188,10.2,4.8,17.048,4.8h.242c6.839,0,12.565-1.608,17.019-4.779A17.857,17.857,0,0,0,49.4,30.591l.514-4.625a14.427,14.427,0,0,0-.245-4.68M10.805,6.459a5.341,5.341,0,0,1,3.072-4.015,6.156,6.156,0,0,1,2.354-.437,7.789,7.789,0,0,1,3.819.98,9.789,9.789,0,0,0,10.2-.037,7.51,7.51,0,0,1,6.114-.505,5.337,5.337,0,0,1,3.073,4.014c1.135,4.768-2.175,12.147-3.651,15.1a8.634,8.634,0,0,0-.911,4.147c.109,3.093-.124,10.693-4.6,14.43a.319.319,0,0,1-.315.064.326.326,0,0,1-.212-.267,30.161,30.161,0,0,1-.088-9.223,4.457,4.457,0,0,0-2.452-5.029,4.85,4.85,0,0,0-4.176,0,4.455,4.455,0,0,0-2.453,5.028,30.121,30.121,0,0,1-.088,9.222.327.327,0,0,1-.211.268.311.311,0,0,1-.315-.064c-3.282-2.739-4.28-7.55-4.538-11.144l.8-.108a1,1,0,0,0,.634-.349L18.8,26.215a1,1,0,0,0,.218-.811c-.1-.6-.214-1.3-.259-1.661.1-.18.291-.472.469-.734a.991.991,0,0,0,.149-.345,20.813,20.813,0,0,0,.44-3.183,3.627,3.627,0,0,0-.608-2.158,2.162,2.162,0,0,0-1.81-.951H12.221c-1.169-3.228-2.1-7.042-1.416-9.913M13,18.372h4.4a.178.178,0,0,1,.145.06,1.617,1.617,0,0,1,.274.976,18.139,18.139,0,0,1-.356,2.643c-.7,1.043-.73,1.27-.723,1.544s.132,1.093.231,1.69l-1.394,1.668-.228.03c0-.478,0-.912.017-1.278a8.632,8.632,0,0,0-.91-4.147c-.394-.789-.92-1.9-1.457-3.186m34.925,7.373L47.41,30.37a15.85,15.85,0,0,1-6.432,11.223C36.869,44.519,31.534,46,25.113,46H25c-6.46.011-11.868-1.473-16.005-4.429a15.853,15.853,0,0,1-6.4-11.2l-.513-4.625a12.417,12.417,0,0,1,.212-4.037c.07-.321.133-.667.2-1.023a6.278,6.278,0,0,1,.844-2.676,3.727,3.727,0,0,1,3.141-.188.475.475,0,0,1,.318.42,11.988,11.988,0,0,0,4.3,8.558L13.4,28.717c.235,4.229,1.369,9.685,5.285,12.953a2.316,2.316,0,0,0,1.49.548,2.285,2.285,0,0,0,.781-.138,2.319,2.319,0,0,0,1.5-1.777,31.785,31.785,0,0,0,.1-9.861c-.2-1.484.226-2.424,1.339-2.96a2.834,2.834,0,0,1,2.44,0c1.113.537,1.538,1.477,1.338,2.961a31.822,31.822,0,0,0,.1,9.862,2.321,2.321,0,0,0,1.5,1.776,2.29,2.29,0,0,0,2.271-.41c4.971-4.147,5.466-11.827,5.319-16.035a6.61,6.61,0,0,1,.7-3.182,52.036,52.036,0,0,0,2.255-5.186c1.033-.008,2.093-.016,3.219-.022.926-.011,3.1-.017,3.558.8A14.517,14.517,0,0,1,47.7,21.652l.014.061a12.44,12.44,0,0,1,.211,4.032" fill="currentColor"/>
    </g>
  </g>
</svg>
