<svg role="img" xmlns="http://www.w3.org/2000/svg" viewBox="0 0 44.5 50">
  <defs>
    <style>
      .cls-1 {
        fill: currentColor;
      }
    </style>
  </defs>
  <g>
    <g>
      <path class="cls-1" d="M44.03,21.2c-2.13-1.35-4.63-1.66-6.9-1.08.94-1.54,1.74-3.01,2.37-4.35,2.05-4.41-2.26-12.51-3.76-14.03-3.94-4.01-12.73.03-14.9,1.12C16.63.82,11.33-.88,8.75,1.74c-1.5,1.52-5.81,9.63-3.76,14.03.62,1.34,1.42,2.81,2.37,4.35-2.27-.58-4.76-.27-6.9,1.08-.47.3-.61.91-.31,1.38.3.47.91.61,1.38.31,3.16-2,7.37-1.06,9.39,2.09.44.69.8,1.38.97,2.05.2.78.76,1.39,1.47,1.69v3.49c0,.55.45,1,1,1h15.77c.55,0,1-.45,1-1v-3.49c.72-.3,1.27-.91,1.47-1.69.17-.67.53-1.36.97-2.04,2.02-3.15,6.22-4.1,9.39-2.09.47.3,1.09.16,1.38-.31.29-.47.16-1.09-.31-1.38ZM29.14,31.2h-13.77v-2.28h7.6c.55,0,1-.45,1-1s-.45-1-1-1h-8.6c-.25,0-.47-.16-.53-.39-.23-.9-.66-1.75-1.19-2.58h0c-.55-.87-1.22-1.71-1.87-2.53-.62-.79-1.21-1.54-1.64-2.23-.94-1.52-1.72-2.96-2.33-4.26-1.52-3.25,2.11-10.51,3.37-11.78,1.68-1.71,6.17-.29,10.35,1.79.01,0,.02.01.03.01,1.89.95,3.71,2.03,5.18,3.02.46.31,1.08.19,1.39-.27.31-.46.19-1.08-.27-1.39-.42-.29-1.86-1.23-3.78-2.29,3.36-1.49,8.93-3.23,11.24-.87,1.26,1.28,4.89,8.53,3.37,11.78-.61,1.31-1.39,2.74-2.33,4.26-.43.69-1.01,1.44-1.64,2.23-.65.82-1.31,1.66-1.87,2.53,0,0,0,0,0,0,0,0,0,0,0,0-.53.83-.96,1.69-1.19,2.58-.06.22-.28.39-.53.39h-2.6c-.55,0-1,.45-1,1s.45,1,1,1h1.6v2.28Z"/>
      <path class="cls-1" d="M28.57,35.5h-12.63c-.55,0-1,.45-1,1s.45,1,1,1h12.63c.55,0,1-.45,1-1s-.45-1-1-1Z"/>
      <path class="cls-1" d="M26.82,39.67h-9.13c-.55,0-1,.45-1,1s.45,1,1,1h9.13c.55,0,1-.45,1-1s-.45-1-1-1Z"/>
      <path class="cls-1" d="M25.07,43.83h-5.63c-.55,0-1,.45-1,1s.45,1,1,1h5.63c.55,0,1-.45,1-1s-.45-1-1-1Z"/>
      <path class="cls-1" d="M23.32,48h-2.13c-.55,0-1,.45-1,1s.45,1,1,1h2.13c.55,0,1-.45,1-1s-.45-1-1-1Z"/>
    </g>
  </g>
</svg>