<svg role="img" xmlns="http://www.w3.org/2000/svg" version="1.1" viewBox="0 0 50 50">
  <defs>
    <style>
      .st0 {
        fill: currentColor;
      }
    </style>
  </defs>
  <!-- Left lens outer ring -->
  <path class="st0" d="M18.5,16C12.71,16,8,20.71,8,26.5S12.71,37,18.5,37c3.04,0,5.79-1.3,7.71-3.38.08-.08.15-.17.22-.26C28.22,31.28,29,28.97,29,26.5,29,20.71,24.29,16,18.5,16ZM18.5,35C13.81,35,10,31.19,10,26.5S13.81,18,18.5,18,27,21.81,27,26.5,23.19,35,18.5,35Z"/>
  <!-- Right lens outer ring -->
  <path class="st0" d="M35.5,16C29.71,16,25,20.71,25,26.5S29.71,37,35.5,37,46,32.29,46,26.5,41.29,16,35.5,16ZM35.5,35C30.81,35,27,31.19,27,26.5S30.81,18,35.5,18,44,21.81,44,26.5,40.19,35,35.5,35Z"/>
  <!-- Left magnification optic (inner filled circle) -->
  <circle class="st0" cx="18.5" cy="26.5" r="6"/>
  <!-- Right magnification optic (inner filled circle) -->
  <circle class="st0" cx="35.5" cy="26.5" r="6"/>
  <!-- Bridge connecting lenses at top -->
  <rect class="st0" x="24" y="19" width="6" height="2" rx="1"/>
  <!-- Left temple arm -->
  <path class="st0" d="M10,25.5H3c-.55,0-1,.45-1,1v1c0,.55.45,1,1,1h7c.55,0,1-.45,1-1v-1c0-.55-.45-1-1-1Z"/>
  <!-- Headband arc -->
  <path class="st0" d="M40.8,16.4c.34-.48.2-1.14-.28-1.48C37.44,12.72,33.7,12,30,12h-6c-3.7,0-7.44.72-10.52,2.92-.48.34-.62,1-.28,1.48.34.48,1,.62,1.48.28C17.36,14.64,20.64,14,24,14h6c3.36,0,6.64.64,9.32,2.68.48.34,1.14.2,1.48-.28Z"/>
  <!-- LED light housing -->
  <path class="st0" d="M44,19h3c1.1,0,2,.9,2,2v2c0,1.1-.9,2-2,2h-3c-.55,0-1-.45-1-1v-4c0-.55.45-1,1-1Z"/>
  <!-- Light rays -->
  <path class="st0" d="M48,20l1.5-1.5c.3-.3.3-.77,0-1.07-.3-.3-.77-.3-1.07,0L47,18.88"/>
  <path class="st0" d="M48,24l1.5,1.5c.3.3.3.77,0,1.07-.3.3-.77.3-1.07,0L47,25.12"/>
  <!-- Nose rest indicators -->
  <path class="st0" d="M25,30c0,0-1,2.5-1,4.5,0,.83.67,1.5,1.5,1.5h3c.83,0,1.5-.67,1.5-1.5,0-2-1-4.5-1-4.5h-4Z"/>
</svg>
