<svg role="img" xmlns="http://www.w3.org/2000/svg" version="1.1" viewBox="0 0 50 50">
  <defs>
    <style>
      .st0 {
        fill: currentColor;
      }
    </style>
  </defs>
  <!-- Main magnifying lens ring -->
  <path class="st0" d="M22,2C11.51,2,3,10.51,3,21s8.51,19,19,19c4.28,0,8.24-1.42,11.42-3.82l10.2,10.2c.39.39.9.59,1.41.59s1.02-.2,1.41-.59c.78-.78.78-2.05,0-2.83l-10.2-10.2C38.58,29.24,40,25.28,40,21,40,10.51,31.49,2,22,2ZM22,36C13.73,36,7,29.27,7,21S13.73,6,22,6s15,6.73,15,15-6.73,15-15,15Z"/>
  <!-- Tooth inside the lens - crown -->
  <path class="st0" d="M22,10c-3.5,0-6.5,1.2-8,3.2-.8,1.1-1.2,2.4-1.2,3.8,0,1.8.7,3.4,1.8,4.5.5.5.8,1.2.7,1.9l-1,6.2c-.15.9.15,1.8.75,2.4.5.5,1.15.8,1.85.8.4,0,.75-.1,1.1-.3.6-.35,1-.95,1.1-1.65l.65-3.9c.1-.55.55-.95,1.1-.95h.3c.55,0,1,.4,1.1.95l.65,3.9c.1.7.5,1.3,1.1,1.65.35.2.7.3,1.1.3.7,0,1.35-.3,1.85-.8.6-.6.9-1.5.75-2.4l-1-6.2c-.1-.7.2-1.4.7-1.9,1.1-1.1,1.8-2.7,1.8-4.5,0-1.4-.4-2.7-1.2-3.8C28.5,11.2,25.5,10,22,10ZM27.5,21.6c-.95.95-1.4,2.3-1.2,3.6l1,6.2c.05.3-.05.55-.2.7-.15.15-.35.2-.5.2-.05,0-.1,0-.15-.02l-.7-4.18c-.3-1.65-1.7-2.85-3.35-2.85h-.3c-1.65,0-3.05,1.2-3.35,2.85L18,32.35c-.05,0-.1,0-.15,0-.15,0-.35-.05-.5-.2-.15-.15-.25-.4-.2-.7l1-6.2c.2-1.3-.25-2.65-1.2-3.6-.8-.8-1.25-1.9-1.25-3.1,0-1,.3-1.9.85-2.65C17.75,14.35,19.7,13,22,13s4.25,1.35,5.45,2.9c.55.75.85,1.65.85,2.65,0,1.2-.45,2.3-1.25,3.1Z"/>
  <!-- Small magnification plus indicator -->
  <rect class="st0" x="37" y="36" width="2" height="8" rx="1"/>
  <rect class="st0" x="34" y="39" width="8" height="2" rx="1"/>
</svg>
