<svg role="img" xmlns="http://www.w3.org/2000/svg" version="1.1" viewBox="0 0 50 50">
  <defs>
    <style>
      .st0 {
        fill: currentColor;
      }
    </style>
  </defs>
  <!-- Glasses frame - left half -->
  <path class="st0" d="M3,18h10.26c.65-1.2,1.92-2,3.37-2h5.74c.26,0,.5.03.74.08C23.67,16.03,24.08,16,24.5,16h1c.42,0,.83.03,1.11.08.24-.05.48-.08.74-.08h5.74c1.45,0,2.72.8,3.37,2H47c.55,0,1-.45,1-1s-.45-1-1-1H37.74c-.93-1.22-2.38-2-4-2H28c-.35,0-.69.04-1.02.11C26.65,14.04,26.31,14,25.96,14h-1.92c-.35,0-.69.04-1.02.11C22.69,14.04,22.35,14,22,14h-5.74c-1.62,0-3.07.78-4,2H3c-.55,0-1,.45-1,1s.45,1,1,1Z"/>
  <!-- Left loupe barrel -->
  <path class="st0" d="M22,18h-5.74c-1.24,0-2.26,1.01-2.26,2.26v7.48c0,3.73,3.02,6.76,6.76,6.76h.48c3.73,0,6.76-3.02,6.76-6.76v-7.48c0-1.24-1.01-2.26-2.26-2.26h-3.74ZM26,27.74c0,2.63-2.13,4.76-4.76,4.76h-.48c-2.63,0-4.76-2.13-4.76-4.76v-7.48c0-.14.11-.26.26-.26H22c0,0,4,0,4,0c.14,0,.26.11.26.26v7.48Z"/>
  <!-- Right loupe barrel -->
  <path class="st0" d="M33.74,18H28c-1.24,0-2.26,1.01-2.26,2.26v7.48c0,3.73,3.02,6.76,6.76,6.76h.48c3.73,0,6.76-3.02,6.76-6.76v-7.48c0-1.24-1.01-2.26-2.26-2.26h-3.48ZM41.74,27.74c0,2.63-2.13,4.76-4.76,4.76h-.48c-2.63,0-4.76-2.13-4.76-4.76v-7.48c0-.14.11-.26.26-.26h9.48c.14,0,.26.11.26.26v7.48Z"/>
  <!-- Left lens glare accent -->
  <circle class="st0" cx="19" cy="25" r="2.5"/>
  <!-- Right lens glare accent -->
  <circle class="st0" cx="34" cy="25" r="2.5"/>
  <!-- Temple arm left -->
  <path class="st0" d="M3,20H1c-.55,0-1-.45-1-1v-2c0-.55.45-1,1-1h2c.55,0,1,.45,1,1v2c0,.55-.45,1-1,1Z"/>
  <!-- LED light on right side -->
  <path class="st0" d="M47,14h2c.55,0,1,.45,1,1v4c0,.55-.45,1-1,1h-2c-.55,0-1-.45-1-1v-4c0-.55.45-1,1-1Z"/>
  <!-- Light cone -->
  <path class="st0" d="M48,21c0,0,2.5,3,2.5,3h-5l2.5-3Z"/>
  <!-- Nose bridge rest -->
  <path class="st0" d="M24,34.5c0,0-.8,3-1.2,5c-.15.74.42,1.5,1.2,1.5h2c.78,0,1.35-.76,1.2-1.5-.4-2-1.2-5-1.2-5h-2Z"/>
  <!-- Left bottom lens rim -->
  <path class="st0" d="M16,34c-.55,0-1,.45-1,1v2c0,.55.45,1,1,1h6c.55,0,1-.45,1-1v-2c0-.55-.45-1-1-1h-6Z"/>
  <!-- Right bottom lens rim -->
  <path class="st0" d="M30,34c-.55,0-1,.45-1,1v2c0,.55.45,1,1,1h6c.55,0,1-.45,1-1v-2c0-.55-.45-1-1-1h-6Z"/>
</svg>
