<svg role="img" xmlns="http://www.w3.org/2000/svg" viewBox="0 0 50 50">
  <defs>
    <style>
      .cls-1 {
        fill: currentColor;
      }
    </style>
  </defs>
  <g>
    <g>
      <path class="cls-1" d="M40.72,32.02c-3.47-1.47-5.92-1.51-7.29-.12-.42.43-1.31,1.84-2.02,3.54-.7-1.71-1.59-3.11-2.02-3.54-2.77-2.81-8.54-.27-10.34.62-2.95-1.41-6.59-2.52-8.45-.62-.42.43-1.31,1.83-2.02,3.54-.7-1.71-1.59-3.11-2.01-3.54-1.23-1.25-3.18-1.59-5.8-1.01-.54.12-.88.65-.76,1.19s.65.88,1.19.76c1.31-.29,3.05-.44,3.94.46.66.67,2.39,4.03,2.44,6.34,0,.05,0,.11,0,.16,0,.43-.07.82-.21,1.14-.32.69-.72,1.44-1.18,2.23-.28.48-.12,1.09.36,1.37.16.09.33.14.5.14.34,0,.68-.18.86-.49.24-.41.46-.81.67-1.2.21.39.43.79.67,1.2.19.32.52.49.86.49.17,0,.35-.04.5-.14.48-.28.64-.89.36-1.37-.46-.79-.86-1.54-1.18-2.23-.15-.32-.21-.71-.21-1.14,0-.05,0-.11,0-.16.05-2.31,1.79-5.68,2.44-6.34,1.42-1.45,6.9,1.12,10.16,3.32.46.31,1.08.19,1.39-.27.31-.46.19-1.08-.27-1.39-.37-.25-1.09-.72-2.01-1.25,2.2-.89,5.36-1.74,6.67-.41.66.67,2.39,4.03,2.44,6.34,0,.05,0,.11,0,.16,0,.43-.07.82-.21,1.14-.32.69-.72,1.43-1.18,2.22-.28.48-.12,1.09.36,1.37.16.09.33.14.5.14.34,0,.68-.18.86-.49.24-.41.46-.81.67-1.2.21.39.43.79.67,1.2.19.32.52.49.86.49.17,0,.35-.04.5-.14.48-.28.64-.89.36-1.37-.46-.78-.86-1.53-1.18-2.23-.15-.32-.21-.71-.21-1.14,0-.05,0-.11,0-.16.06-2.31,1.79-5.68,2.44-6.34.7-.71,2.55-.51,5.08.56.51.21,1.09-.02,1.31-.53s-.02-1.1-.53-1.31Z"/>
      <path class="cls-1" d="M40.38,47.94c-1.76-.09-3.54-.29-5.27-.58-2.45-.41-4.93-.41-7.39,0-5.05.85-10.38.85-15.44,0-2.45-.41-4.93-.41-7.38,0-1.31.22-2.65.39-3.99.49-.55.04-.96.53-.92,1.08.04.55.51.96,1.08.92,1.39-.11,2.79-.28,4.16-.51,2.23-.38,4.49-.38,6.72,0,2.63.44,5.34.66,8.05.66s5.42-.22,8.05-.66c2.23-.38,4.49-.38,6.72,0,1.81.3,3.66.51,5.5.6.55.03,1.02-.4,1.05-.95.03-.55-.4-1.02-.95-1.05Z"/>
      <path class="cls-1" d="M49.82,7.39c-.32-.45-.94-.56-1.39-.24l-9.68,6.81-3.21-3.76L43.77,1.7c.38-.4.37-1.03-.02-1.41-.4-.38-1.03-.38-1.41.02l-8.87,9.15c-.36.37-.38.95-.04,1.35l1.68,1.97-6.66,5.69c-2.49-2.09-6.24-2.14-8.78.03-2.79,2.38-3.17,6.63-.84,9.47.2.24.48.37.77.37.22,0,.45-.07.63-.23.43-.35.49-.98.14-1.41-1.64-2-1.38-5,.59-6.68,1.97-1.68,4.97-1.47,6.69.46.36.41.98.45,1.4.1l7.35-6.28,1.41,1.65c.2.23.48.35.76.35.2,0,.4-.06.57-.18l10.43-7.33c.45-.32.56-.94.24-1.39Z"/>
    </g>
  </g>
</svg>