<svg role="img" xmlns="http://www.w3.org/2000/svg" viewBox="0 0 50 42">
  <defs>
    <style>
      .cls-1 {
        fill: currentColor;
      }
    </style>
  </defs>
  <g>
    <g>
      <path class="cls-1" d="M.68,7.93s.4.13,1.17.31v2.11c0,1.76,1.13,3.3,2.8,3.83,1.45.46,3.61,1.04,5.66,1.18.09,0,.18,0,.27,0,1,0,1.95-.38,2.7-1.07.04-.04.07-.08.1-.12.57.75,1.39,1.31,2.36,1.5,1.21.24,2.42.36,3.64.36s2.43-.12,3.64-.36c.87-.17,1.63-.64,2.19-1.28.56.64,1.31,1.11,2.19,1.28,1.21.24,2.42.36,3.64.36s2.43-.12,3.64-.36c.97-.19,1.79-.75,2.36-1.5.04.04.06.08.1.12.75.7,1.7,1.07,2.7,1.07.09,0,.18,0,.27,0,2.05-.14,4.21-.72,5.66-1.18,1.68-.53,2.8-2.07,2.8-3.83v-2.2c.5-.14.76-.23.78-.24.51-.2.77-.77.58-1.29-.19-.52-.77-.77-1.29-.59,0,0-.04.01-.09.03-.15-3.38-2.93-6.08-6.34-6.08-2.32,0-4.35,1.26-5.46,3.12-1.22-1.87-3.33-3.12-5.72-3.12s-4.63,1.32-5.83,3.29c-1.2-1.97-3.36-3.29-5.83-3.29s-4.51,1.24-5.72,3.12c-1.11-1.86-3.14-3.12-5.46-3.12C4.75,0,1.94,2.76,1.85,6.19c-.34-.09-.52-.14-.53-.15-.52-.18-1.09.1-1.27.62-.18.52.1,1.09.62,1.27ZM37.86,6.36c0-2.4,1.95-4.36,4.36-4.36s4.36,1.95,4.36,4.36v.21c-.48.1-1.06.2-1.73.31-.55.09-.92.6-.83,1.14.08.49.5.84.99.84.05,0,.11,0,.16-.01.54-.09,1-.17,1.42-.25v1.75c0,.88-.57,1.66-1.41,1.93-1.34.43-3.33.96-5.19,1.09-.55.04-1.07-.15-1.47-.53-.41-.38-.65-.93-.65-1.49v-1.7c1.18-.08,2.3-.18,3.36-.29v.54c0,.55.45,1,1,1s1-.45,1-1v-3.31c0-.55-.45-1-1-1s-1,.45-1,1v.76c-1.06.11-2.17.21-3.36.3v-1.29ZM31.04,2c2.66,0,4.83,2.17,4.83,4.83v.95c-.68.04-1.38.07-2.09.11-.55.02-.98.49-.96,1.04.02.54.47.96,1,.96.01,0,.03,0,.04,0,.69-.03,1.35-.06,2.01-.1v1.97c0,.96-.66,1.79-1.57,1.97-2.16.43-4.35.43-6.51,0-.91-.18-1.57-1.01-1.57-1.97v-1.7c1.3,0,2.58-.02,3.83-.05v.64c0,.55.45,1,1,1s1-.45,1-1v-3.31c0-.55-.45-1-1-1s-1,.45-1,1v.67c-1.25.03-2.52.04-3.83.05v-1.22c0-2.66,2.17-4.83,4.83-4.83ZM19.38,2c2.66,0,4.83,2.17,4.83,4.83v1.22c-.69,0-1.38,0-2.04-.02h-.01c-.55,0-.99.44-1,.99,0,.55.43,1.01.99,1.01.67,0,1.36.01,2.06.02v1.7c0,.96-.66,1.79-1.57,1.97-2.16.43-4.35.43-6.51,0-.91-.18-1.57-1.01-1.57-1.97v-1.97c1.23.07,2.51.12,3.83.17v.67c0,.55.45,1,1,1s1-.45,1-1v-3.31c0-.55-.45-1-1-1s-1,.45-1,1v.64c-1.32-.04-2.6-.1-3.83-.17v-.94c0-2.66,2.17-4.83,4.83-4.83ZM3.84,6.36c0-2.4,1.95-4.36,4.36-4.36s4.36,1.95,4.36,4.36v1.29c-.65-.05-1.29-.1-1.91-.15-.53-.05-1.04.36-1.08.91s.36,1.04.91,1.08c.67.06,1.37.11,2.08.16v1.7c0,.56-.24,1.11-.65,1.49-.4.38-.92.57-1.47.53-1.85-.12-3.84-.66-5.19-1.09-.84-.27-1.41-1.04-1.41-1.93v-1.71c.8.14,1.78.29,2.94.44v.79c0,.55.45,1,1,1s1-.45,1-1v-3.31c0-.55-.45-1-1-1s-1,.45-1,1v.5c-1.19-.16-2.16-.31-2.94-.46v-.26Z"/>
      <path class="cls-1" d="M48.65,31.06s-.03.01-.07.02v-1.82c0-1.11-.47-2.19-1.28-2.95s-1.86-1.14-2.97-1.07c-2.05.14-4.21.72-5.66,1.18-.72.23-1.33.65-1.8,1.19-.56-.64-1.31-1.11-2.19-1.29-2.42-.48-4.87-.48-7.28,0-.87.17-1.63.64-2.19,1.28-.56-.64-1.31-1.11-2.19-1.28-2.42-.48-4.87-.48-7.28,0-.88.17-1.63.64-2.19,1.29-.47-.54-1.08-.96-1.8-1.19-1.45-.46-3.61-1.04-5.66-1.18-1.09-.07-2.16.3-2.97,1.07s-1.28,1.84-1.28,2.95v1.93c-.34-.09-.51-.14-.52-.15-.53-.18-1.09.1-1.27.62-.18.52.1,1.09.62,1.27.03.01.4.13,1.16.31v1c0,3.5,2.85,6.36,6.36,6.36,2.05,0,3.87-.98,5.03-2.49,1.1,2.29,3.44,3.88,6.15,3.88,2.47,0,4.63-1.32,5.83-3.29,1.2,1.97,3.36,3.29,5.83,3.29,2.71,0,5.05-1.59,6.15-3.88,1.16,1.51,2.98,2.49,5.03,2.49,3.5,0,6.36-2.85,6.36-6.36v-1.09c.5-.14.76-.23.78-.24.51-.2.77-.77.58-1.29-.19-.52-.77-.77-1.29-.59ZM8.2,38.61c-2.4,0-4.36-1.95-4.36-4.36v-.6c.8.14,1.78.29,2.94.44v.79c0,.55.45,1,1,1s1-.45,1-1v-3.31c0-.55-.45-1-1-1s-1,.45-1,1v.5c-1.19-.16-2.16-.31-2.94-.46v-2.36c0-.56.24-1.11.65-1.49.37-.35.84-.53,1.34-.53.04,0,.09,0,.13,0,1.85.12,3.84.66,5.19,1.09.84.27,1.41,1.04,1.41,1.93v2.39c-.65-.05-1.29-.1-1.91-.15-.55-.05-1.04.36-1.08.91-.05.55.36,1.04.91,1.08.66.06,1.34.11,2.04.16-.21,2.21-2.05,3.96-4.32,3.96ZM19.38,40c-2.66,0-4.83-2.17-4.83-4.83v-.39c1.23.07,2.51.12,3.83.17v.67c0,.55.45,1,1,1s1-.45,1-1v-3.31c0-.55-.45-1-1-1s-1,.45-1,1v.64c-1.32-.04-2.6-.1-3.83-.17v-2.52c0-.96.66-1.79,1.57-1.97,1.08-.21,2.17-.32,3.25-.32s2.17.11,3.25.32c.91.18,1.57,1.01,1.57,1.97v2.8c-.69,0-1.38,0-2.04-.02h-.01c-.55,0-.99.44-1,.99,0,.55.43,1.01.99,1.01.67,0,1.36.01,2.06.02v.12c0,2.66-2.17,4.83-4.83,4.83ZM31.04,40c-2.66,0-4.83-2.17-4.83-4.83v-.12c1.31,0,2.59-.02,3.83-.05v.64c0,.55.45,1,1,1s1-.45,1-1v-3.31c0-.55-.45-1-1-1s-1,.45-1,1v.67c-1.24.03-2.51.04-3.83.05v-2.8c0-.96.66-1.79,1.57-1.97,1.08-.21,2.17-.32,3.26-.32s2.17.11,3.25.32c.91.18,1.57,1.01,1.57,1.97v2.53c-.68.04-1.38.07-2.09.11-.55.02-.98.49-.96,1.04.02.54.47.96,1,.96.01,0,.03,0,.04,0,.68-.03,1.35-.06,2.01-.1v.39c0,2.66-2.17,4.83-4.83,4.83ZM46.58,34.25c0,2.4-1.95,4.36-4.36,4.36-2.27,0-4.11-1.74-4.32-3.96,1.16-.08,2.26-.18,3.32-.29v.55c0,.55.45,1,1,1s1-.45,1-1v-3.31c0-.55-.45-1-1-1s-1,.45-1,1v.76c-1.06.11-2.18.21-3.36.3v-2.4c0-.88.57-1.66,1.41-1.93,1.34-.43,3.33-.96,5.19-1.09.04,0,.09,0,.13,0,.5,0,.97.19,1.34.53.41.38.65.93.65,1.49v2.32c-.48.1-1.06.2-1.73.31-.55.09-.92.6-.83,1.14.08.49.5.84.99.84.05,0,.1,0,.16-.01.54-.09,1-.17,1.42-.25v.64Z"/>
    </g>
  </g>
</svg>