<svg role="img" xmlns="http://www.w3.org/2000/svg" version="1.1" viewBox="0 0 46 50">
  <!-- Generator: Adobe Illustrator 29.4.0, SVG Export Plug-In . SVG Version: 2.1.0 Build 152)  -->
  <defs>
    <style>
      .st0 {
        fill: currentColor;
      }
    </style>
  </defs>
  <path class="st0" d="M33.9,3.6c-.6,0-1,.4-1,1s.4,1,1,1c1.9,0,2.9.8,3.3,2.7.1.4.5.8,1,.8,0,0,.2,0,.2,0,.5-.1.9-.7.7-1.2-.7-2.9-2.4-4.3-5.3-4.3Z"/>
  <path class="st0" d="M42.7,7c-.5-2.8-2.4-5.1-5-6.3-3.2-1.1-6.7-.9-9.6.8-1.6.9-3.3,1.4-5.1,1.4-1.7,0-3.5-.5-5.1-1.4C15-.1,11.5-.4,8.3.7c-2.6,1.1-4.5,3.5-5,6.3-1.5,6.2,2.3,14.9,4.6,19.5.6,1.2.9,2.5.9,3.9-.2,5,.4,14.1,6.4,19,.7.6,1.7.8,2.6.4.9-.3,1.5-1.1,1.7-2,.7-3.9.7-7.8.1-11.7-.2-1.8.3-3.1,1.8-3.7.5-.2,1.1-.4,1.6-.4.5,0,1.1.1,1.6.4,1.4.7,2,1.9,1.8,3.7-.6,3.9-.5,7.8.1,11.7.2.9.8,1.7,1.7,2,.9.3,1.9.2,2.6-.4,6-4.9,6.6-14,6.4-19,0-1.3.3-2.7.9-3.9,2.4-4.7,6.1-13.4,4.6-19.5ZM36.2,25.6h0c-.8,1.5-1.1,3.2-1.1,4.9.1,3.7-.2,12.9-5.7,17.4-.2.1-.4.2-.6.1-.2,0-.4-.3-.4-.5-.6-3.7-.7-7.4-.1-11.1.4-2.7-.7-4.8-2.9-5.8-.8-.4-1.6-.5-2.4-.5-.8,0-1.7.2-2.4.5-2.2,1-3.3,3.1-2.9,5.8.5,3.7.5,7.4-.1,11.1,0,.2-.2.4-.4.5-.2,0-.5,0-.6-.1-5.5-4.5-5.8-13.7-5.7-17.4,0-1.7-.3-3.4-1.1-4.9h0c-1.8-3.5-5.9-12.4-4.5-18.1.4-2.2,1.8-4,3.8-4.9,2.6-.9,5.4-.7,7.8.6,1.9,1.1,4,1.7,6.1,1.7,2.1,0,4.3-.6,6.1-1.7,2.4-1.3,5.2-1.5,7.8-.6,2,.9,3.4,2.7,3.8,4.9,1.4,5.7-2.7,14.6-4.5,18.1Z"/>
  <path class="st0" d="M29.2,16.7c-.6,0-1,.4-1,1,0,2.9-2.3,5.2-5.2,5.2s-5.2-2.3-5.2-5.2-.4-1-1-1-1,.4-1,1c0,4,3.2,7.2,7.2,7.2s7.2-3.2,7.2-7.2-.4-1-1-1Z"/>
  <circle class="st0" cx="20.1" cy="11.6" r="1.5"/>
  <circle class="st0" cx="25.9" cy="11.6" r="1.5"/>
</svg>