<svg role="img" xmlns="http://www.w3.org/2000/svg" xmlns:xlink="http://www.w3.org/1999/xlink" width="48" height="50" viewBox="0 0 48 50">
  <defs>
    <clipPath id="clip-path">
      <rect width="48" height="50" fill="currentColor"/>
    </clipPath>
  </defs>
  <g clip-path="url(#clip-path)">
    <path d="M32.931,5.112a1.036,1.036,0,0,0-1.594,0c-.616.814-15.068,20.017-15.068,28.663A16.066,16.066,0,0,0,32.134,50,16.066,16.066,0,0,0,48,33.775C48,25.129,33.547,5.926,32.931,5.112M32.134,48A14.064,14.064,0,0,1,18.269,33.775c0-6.884,10.805-22.183,13.865-26.376C35.194,11.592,46,26.891,46,33.775A14.064,14.064,0,0,1,32.134,48" fill="currentColor"/>
    <path d="M42,33.8a1,1,0,0,0-1.274.614,14.065,14.065,0,0,1-6.884,7.937,1,1,0,0,0,.91,1.782,16.062,16.062,0,0,0,7.862-9.059A1,1,0,0,0,42,33.8" fill="currentColor"/>
    <path d="M18.9,13.068a1,1,0,1,0,1.746-.976A118.56,118.56,0,0,0,12.963.4a1,1,0,0,0-1.6,0C10.9,1.01,0,15.5,0,22.075A12.334,12.334,0,0,0,10.727,34.42a.982.982,0,0,0,.121.007,1,1,0,0,0,.118-1.992A10.334,10.334,0,0,1,2,22.075C2,17.555,8.722,7.4,12.163,2.682A113.166,113.166,0,0,1,18.9,13.068" fill="currentColor"/>
  </g>
</svg>
