<svg role="img" xmlns="http://www.w3.org/2000/svg" xmlns:xlink="http://www.w3.org/1999/xlink" width="48" height="50" viewBox="0 0 48 50">
  <defs>
    <clipPath id="clip-path">
      <rect width="48" height="50" fill="currentColor"/>
    </clipPath>
  </defs>
  <g clip-path="url(#clip-path)">
    <path d="M31.041,19.118A7.75,7.75,0,0,0,36.995,6.471,7.692,7.692,0,0,0,26.149,5.389a7.778,7.778,0,0,0-1.078,10.9,7.688,7.688,0,0,0,5.97,2.832M27.411,6.936a5.733,5.733,0,1,1-.8,8.082,5.767,5.767,0,0,1,.8-8.082" fill="currentColor"/>
    <path d="M47.353,26.5,40.3,17.911a11.4,11.4,0,0,0-.507-13.743,11.307,11.307,0,0,0-19.871,5.04,8.015,8.015,0,0,1-7.284-.538,9.787,9.787,0,0,0-8.072-.637A7.332,7.332,0,0,0,.29,13.457C-.972,18.719,2.176,26.121,4.164,30.065a6.629,6.629,0,0,1,.712,3.211c-.149,4.246.355,11.995,5.407,16.177a2.334,2.334,0,0,0,3.8-1.376,31.93,31.93,0,0,0,.106-9.952,2.528,2.528,0,0,1,1.369-2.992,2.935,2.935,0,0,1,2.509,0,2.529,2.529,0,0,1,1.369,2.993,31.925,31.925,0,0,0,.106,9.951,2.332,2.332,0,0,0,3.8,1.376c5.052-4.182,5.556-11.931,5.407-16.178a6.628,6.628,0,0,1,.712-3.21,48.456,48.456,0,0,0,3.029-7.415,11.242,11.242,0,0,0,3.175-.886l7.033,8.565a2.851,2.851,0,0,0,4,.4l.264-.215h0a2.847,2.847,0,0,0,.4-4.01M25.117,4.125a9.342,9.342,0,0,1,15.206,8.18,9.348,9.348,0,1,1-15.206-8.18m2.561,25.037a8.632,8.632,0,0,0-.924,4.184c.11,3.122-.127,10.792-4.683,14.564a.347.347,0,0,1-.352.068A.341.341,0,0,1,21.5,47.7a30.2,30.2,0,0,1-.089-9.305,4.511,4.511,0,0,0-2.487-5.069,4.931,4.931,0,0,0-4.219,0A4.511,4.511,0,0,0,12.213,38.4a30.2,30.2,0,0,1-.089,9.306.341.341,0,0,1-.224.277.349.349,0,0,1-.352-.068C6.992,44.138,6.755,36.468,6.865,33.347a8.633,8.633,0,0,0-.924-4.185c-1.5-2.978-4.869-10.424-3.716-15.237A5.416,5.416,0,0,1,5.333,9.879a7.735,7.735,0,0,1,6.333.537,9.926,9.926,0,0,0,8.049.969,11.306,11.306,0,0,0,10.654,11.33,48.346,48.346,0,0,1-2.691,6.447m18.021-.2-.263.215a.863.863,0,0,1-1.21-.118l-6.8-8.285q.4-.276.787-.591c.275-.227.535-.466.786-.714l6.821,8.307a.841.841,0,0,1-.119,1.186" fill="currentColor"/>
  </g>
</svg>
