<svg role="img" xmlns="http://www.w3.org/2000/svg" viewBox="0 0 50 48">
  <defs>
    <style>
      .cls-1 {
        fill: currentColor;
      }
    </style>
  </defs>
  <g>
    <g>
      <path class="cls-1" d="M8.62,7.12l.44-.16c.21-.08.43-.09.65-.04,3.32.71,6.66,1.07,10.01,1.07s6.69-.36,10-1.07c.22-.05.44-.03.65.04l.44.16c.52.19,1.09-.08,1.28-.6.19-.52-.08-1.09-.6-1.28l-.44-.16c-.56-.2-1.17-.25-1.75-.12-6.36,1.37-12.81,1.37-19.17,0-.58-.13-1.19-.08-1.75.12l-.44.16c-.52.19-.79.76-.6,1.28.19.52.76.79,1.28.6Z"/>
      <path class="cls-1" d="M47.4,14.86v-3.24c0-.55-.45-1-1-1h-1.3V1c0-.55-.45-1-1-1s-1,.45-1,1v9.62h-1.29c-.55,0-1,.45-1,1v3.24c-1.44.05-2.6,1.24-2.6,2.69v3.18h-2.86c.59-4.02-2.55-9.82-3.72-11.02-.4-.41-.88-.71-1.45-.92-.04-.01-.08-.02-.11-.02-.02,0-.03-.02-.05-.02-.01,0-.03,0-.04,0-.11-.02-.23-.02-.34,0,0,0,0,0,0,0,0,0,0,0,0,0-6.58,1.42-13.25,1.41-19.84,0-.11-.02-.23-.02-.34,0-.01,0-.03,0-.04,0-.02,0-.03.02-.05.02-.04,0-.08.01-.11.02-.56.21-1.05.51-1.45.92-1.18,1.2-4.31,6.99-3.72,11.02H1c-.55,0-1,.45-1,1s.45,1,1,1h3.75c.52,1.05,1.14,2.17,1.86,3.35,1.23,2,1.86,4.3,1.82,6.64-.03,1.5-.12,3.08-.26,4.7-.3,3.34.95,6.67,3.37,8.9,1.29,1.2,2.68,1.8,3.7,1.63,2.8-.48,3.77-3.44,2.89-8.81-.57-3.48.08-4.81.52-5.29.42-.46.92-.46.98-.45.07,0,.15,0,.22,0,0,0,.5-.03.93.42.45.47,1.12,1.79.54,5.32-.88,5.37.09,8.33,2.89,8.81.11.02.23.03.36.03.97,0,2.19-.6,3.34-1.66,2.41-2.23,3.67-5.56,3.36-8.9-.15-1.64-.24-3.22-.26-4.7-.04-2.34.59-4.64,1.82-6.64.73-1.19,1.35-2.31,1.86-3.35h3.54v17.78c0,.55.45,1,1,1h3.89v4.16h-2.08c-.55,0-1,.45-1,1s.45,1,1,1h6.16c.55,0,1-.45,1-1s-.45-1-1-1h-2.08v-4.16h3.9c.55,0,1-.45,1-1v-22.96c0-1.45-1.16-2.63-2.6-2.69ZM16.73,16.73l4.47-4.94c.96-.03,1.91-.08,2.87-.17l-5.04,5.57c-.79-.06-1.56-.22-2.29-.47ZM11.96,13.04c-.41-.62-.75-1.3-1.01-2.03.83.15,1.66.28,2.49.39l-1.48,1.64ZM15.9,11.66c.86.07,1.73.11,2.59.13l-3.66,4.04c-.58-.35-1.11-.77-1.6-1.24l2.66-2.94ZM27.08,11.26c.47-.07.93-.16,1.39-.25-1.04,2.97-3.51,5.19-6.54,5.93l5.14-5.68ZM31.11,25.04c-1.43,2.33-2.16,5-2.12,7.72.03,1.53.12,3.16.27,4.85.37,4.04-2,6.57-2.73,7.25-1.01.93-1.79,1.18-2.01,1.13-1.86-.32-1.71-3.71-1.25-6.51.55-3.35.19-5.71-1.07-7.03-.88-.92-1.9-1.04-2.37-1.04-.05,0-.09,0-.13,0-.39-.02-1.53.02-2.5,1.03-1.26,1.32-1.62,3.68-1.07,7.03.46,2.79.62,6.19-1.25,6.51-.21.05-1-.2-2-1.13-.73-.68-3.1-3.21-2.73-7.25.15-1.67.24-3.3.27-4.85.05-2.72-.68-5.4-2.12-7.73-.82-1.34-1.51-2.59-2.04-3.73-1.22-2.63,1.45-8.27,2.69-9.91,1.45,4.5,5.59,7.66,10.41,7.8.02,0,.04.01.06.01.01,0,.02,0,.03,0,.08,0,.16.01.24.01,4.96,0,9.25-3.21,10.74-7.82,1.24,1.63,3.92,7.28,2.69,9.91-.53,1.13-1.21,2.39-2.04,3.73ZM40.22,39.51v-7.13h7.78v7.13h-7.78ZM45.4,12.62v2.23h-2.59v-2.23h2.59ZM40.92,16.85h6.39c.39,0,.7.31.7.7v.48h-2.11c-.55,0-1,.45-1,1s.45,1,1,1h2.11v2.12h-4.32c-.55,0-1,.45-1,1s.45,1,1,1h4.32v2.12h-2.11c-.55,0-1,.45-1,1s.45,1,1,1h2.11v2.12h-7.78v-12.83c0-.39.31-.7.7-.7Z"/>
    </g>
  </g>
</svg>