<svg role="img" xmlns="http://www.w3.org/2000/svg" viewBox="0 0 50 50"><defs><style>.cls-1{fill:currentColor;stroke-width:0px;}</style></defs><g><path class="cls-1" d="M49.69,32c-.07-.07-.15-.13-.25-.18-.51-.26-12.66-6.31-18.26-6.31-2.55,0-4.67.86-6.19,2.49-1.53-1.64-3.64-2.49-6.19-2.49-5.59,0-17.74,6.05-18.25,6.31-.05.02-.09.06-.13.09-.01,0-.02.02-.04.02-.03.02-.05.04-.08.07,0,0,0,0-.01.01-.05.06-.1.11-.14.18,0,.01-.01.03-.02.05-.05.09-.08.19-.1.3,0,.02-.01.03-.02.04,0,0,0,.02,0,.03,0,.01,0,.03,0,.04,0,.1,0,.2.03.3,0,.03.02.05.03.07.03.09.07.17.12.25.01.02.03.04.04.06.06.08.13.15.22.21,1.12.75,2.14,2.33,3.32,4.15,3.16,4.9,7.94,12.3,21.24,12.3s18.08-7.4,21.24-12.3c1.18-1.83,2.2-3.4,3.32-4.15.3-.2.46-.54.44-.89-.02-.25-.13-.47-.29-.64,0,0,0,0-.01-.01ZM24.17,30.17c.19.28.5.45.83.45s.65-.17.83-.45c1.17-1.76,2.98-2.66,5.36-2.66,3.46,0,10.11,2.75,14.1,4.56-4,.45-11.81,1.19-20.29,1.19s-16.05-.69-20.4-1.14c3.98-1.81,10.72-4.61,14.21-4.61,2.38,0,4.19.89,5.36,2.66ZM44.11,34.21s-.08.05-.12.08c-4.53,2.99-11.37,7.5-18.99,7.5s-14.46-4.52-18.99-7.5c0,0-.02-.01-.03-.02,4.58.45,11.69.99,19.02.99s14.79-.6,19.11-1.05ZM25,48c-12.21,0-16.46-6.58-19.56-11.38-.12-.18-.23-.35-.34-.52,4.73,3.12,11.79,7.71,19.9,7.71s15.17-4.59,19.9-7.71c-.11.17-.22.34-.34.52-3.1,4.8-7.35,11.38-19.56,11.38Z"/><path class="cls-1" d="M37.57,17.72c0,.33.17.65.44.83l2.96,1.98,1.98,2.97c.18.28.5.45.83.45s.65-.17.83-.45l1.98-2.97,2.96-1.98c.28-.19.44-.5.44-.83s-.17-.65-.44-.83l-2.96-1.98-1.98-2.97c-.37-.56-1.29-.56-1.66,0l-1.98,2.97-2.96,1.98c-.28.19-.44.5-.44.83ZM42.25,16.46c.11-.07.2-.17.28-.28l1.25-1.88,1.25,1.88c.07.11.17.2.28.28l1.88,1.26-1.88,1.26c-.11.07-.2.17-.28.28l-1.25,1.88-1.25-1.88c-.07-.11-.17-.2-.28-.28l-1.89-1.26,1.88-1.26Z"/><path class="cls-1" d="M24.63,9.24l4.82,1.93,1.93,4.83c.15.38.52.63.93.63s.78-.25.93-.63l1.93-4.83,4.82-1.93c.38-.15.63-.52.63-.93s-.25-.78-.63-.93l-4.82-1.93-1.93-4.83c-.15-.38-.52-.63-.93-.63s-.78.25-.93.63l-1.93,4.83-4.82,1.93c-.38.15-.63.52-.63.93s.25.78.63.93ZM30.59,7.15c.25-.1.46-.3.56-.56l1.16-2.9,1.16,2.9c.1.25.3.46.56.56l2.9,1.16-2.9,1.16c-.25.1-.46.3-.56.56l-1.16,2.9-1.16-2.9c-.1-.25-.3-.46-.56-.56l-2.9-1.16,2.9-1.16Z"/></g></svg>