<svg role="img" xmlns="http://www.w3.org/2000/svg" viewBox="0 0 46 49.99">
  <defs>
    <style>
      .cls-1 {
        fill: currentColor;
      }
    </style>
  </defs>
  <g>
    <path class="cls-1" d="M36.85,3.58c-.6,0-1,.4-1,1s.4,1,1,1c1.9,0,2.9.8,3.3,2.7.1.4.5.8,1,.8h.2c.5-.1.9-.7.7-1.2-.7-2.9-2.4-4.3-5.3-4.3h.1Z"/>
    <path class="cls-1" d="M13.57,22.06c0,.33.17.65.44.83l2.96,1.98,1.98,2.97c.18.28.5.45.83.45s.65-.17.83-.45l1.98-2.97,2.96-1.98c.28-.19.44-.5.44-.83s-.17-.65-.44-.83l-2.96-1.98-1.98-2.97c-.37-.56-1.29-.56-1.66,0l-1.98,2.97-2.96,1.98c-.28.19-.44.5-.44.83ZM18.25,20.8c.11-.07.2-.17.28-.28l1.25-1.88,1.25,1.88c.07.11.17.2.28.28l1.88,1.26-1.88,1.26c-.11.07-.2.17-.28.28l-1.25,1.88-1.25-1.88c-.07-.11-.17-.2-.28-.28l-1.89-1.26,1.88-1.26h0Z"/>
    <path class="cls-1" d="M.63,13.58l4.82,1.93,1.93,4.83c.15.38.52.63.93.63s.78-.25.93-.63l1.93-4.83,4.82-1.93c.38-.15.63-.52.63-.93s-.25-.78-.63-.93l-4.82-1.93-1.93-4.83c-.15-.38-.52-.63-.93-.63s-.78.25-.93.63l-1.93,4.83-4.82,1.93c-.38.15-.63.52-.63.93s.25.78.63.93ZM6.59,11.49c.25-.1.46-.3.56-.56l1.16-2.9,1.16,2.9c.1.25.3.46.56.56l2.9,1.16-2.9,1.16c-.25.1-.46.3-.56.56l-1.16,2.9-1.16-2.9c-.1-.25-.3-.46-.56-.56l-2.9-1.16s2.9-1.16,2.9-1.16Z"/>
    <path class="cls-1" d="M45.65,6.98c-.5-2.8-2.4-5.1-5-6.3-3.2-1.1-6.7-.9-9.6.8-1.6.9-3.3,1.4-5.1,1.4-1.7,0-3.5-.5-5.1-1.4C17.95-.12,14.45-.42,11.25.68c-.44.19-.86.41-1.25.67-.65.42-.6,1.39.07,1.77.33.18.73.19,1.05-.02.29-.19.61-.37.93-.52,2.6-.9,5.4-.7,7.8.6,1.9,1.1,4,1.7,6.1,1.7s4.3-.6,6.1-1.7c2.4-1.3,5.2-1.5,7.8-.6,2,.9,3.4,2.7,3.8,4.9,1.4,5.7-2.7,14.6-4.5,18.1-.8,1.5-1.1,3.2-1.1,4.9.1,3.7-.2,12.9-5.7,17.4-.2.1-.4.2-.6.1-.2,0-.4-.3-.4-.5-.6-3.7-.7-7.4-.1-11.1.4-2.7-.7-4.8-2.9-5.8-.8-.4-1.6-.5-2.4-.5s-1.7.2-2.4.5c-2.2,1-3.3,3.1-2.9,5.8.5,3.7.5,7.4-.1,11.1,0,.2-.2.4-.4.5-.2,0-.5,0-.6-.1-5.5-4.5-5.8-13.7-5.7-17.4,0-1.7-.3-3.4-1.1-4.9-.38-.73-.85-1.7-1.36-2.83-.28-.61-1.05-.82-1.59-.41h0c-.38.29-.52.81-.32,1.25.48,1.07.94,2.05,1.36,2.88.6,1.2.9,2.5.9,3.9-.2,5,.4,14.1,6.4,19,.7.6,1.7.8,2.6.4.9-.3,1.5-1.1,1.7-2,.7-3.9.7-7.8.1-11.7-.2-1.8.3-3.1,1.8-3.7.5-.2,1.1-.4,1.6-.4s1.1.1,1.6.4c1.4.7,2,1.9,1.8,3.7-.6,3.9-.5,7.8.1,11.7.2.9.8,1.7,1.7,2,.9.3,1.9.2,2.6-.4,6-4.9,6.6-14,6.4-19,0-1.3.3-2.7.9-3.9,2.4-4.7,6.1-13.4,4.6-19.5Z"/>
  </g>
</svg>