<svg role="img" xmlns="http://www.w3.org/2000/svg" viewBox="0 0 50 50">
  <defs>
    <style>
      .cls-1 {
        fill: currentColor;
      }
    </style>
  </defs>
  <g>
    <g>
      <path class="cls-1" d="M28.87,24.77h-7.74c-2.26,0-4.1,1.84-4.1,4.1v2.32c0,.55.45,1,1,1s1-.45,1-1v-2.32c0-1.16.94-2.1,2.1-2.1h7.74c1.16,0,2.1.94,2.1,2.1v11.61c0,1.78-1.9,4.42-5.97,4.42s-5.97-2.64-5.97-4.42v-2.1h3.65c1.41,0,2.55-1.14,2.55-2.55s-1.14-2.55-2.55-2.55h-5.76c-2.54,0-4.93.99-6.73,2.79L1.84,44.42c-.39.39-.39,1.02,0,1.41s1.02.39,1.41,0l8.34-8.34c1.42-1.42,3.31-2.2,5.32-2.2h5.76c.3,0,.55.25.55.55s-.25.55-.55.55h-5.51c-1.73,0-3.33.77-4.41,2.12l-7.9,9.87c-.34.43-.27,1.06.16,1.41.18.15.41.22.62.22.29,0,.58-.13.78-.38l7.9-9.87c.67-.83,1.65-1.31,2.71-1.35v2.08c0,3.09,3.05,6.42,7.97,6.42s7.97-3.33,7.97-6.42v-11.61c0-2.26-1.84-4.1-4.1-4.1Z"/>
      <path class="cls-1" d="M48.64,19.65c-.82.31-1.74.47-2.74.47-4.07,0-5.97-2.64-5.97-4.42V2h9.06c.55,0,1-.45,1-1s-.45-1-1-1H1C.45,0,0,.45,0,1s.45,1,1,1h9.06v13.71c0,1.78-1.9,4.42-5.97,4.42-1,0-1.92-.16-2.74-.47-.51-.2-1.09.06-1.29.58s.06,1.09.58,1.29c1.05.4,2.21.61,3.45.61,3.26,0,5.69-1.47,6.97-3.35,1.27,1.89,3.7,3.35,6.97,3.35s5.69-1.47,6.97-3.35c1.27,1.89,3.7,3.35,6.97,3.35s5.69-1.47,6.97-3.35c1.27,1.89,3.7,3.35,6.97,3.35,1.24,0,2.4-.2,3.45-.61.52-.2.77-.78.58-1.29-.2-.52-.78-.77-1.29-.58ZM18.03,20.13c-4.07,0-5.97-2.64-5.97-4.42V2h11.94v13.71c0,1.78-1.9,4.42-5.97,4.42ZM31.97,20.13c-4.07,0-5.97-2.64-5.97-4.42V2h11.94v13.71c0,1.78-1.9,4.42-5.97,4.42Z"/>
    </g>
  </g>
</svg>