<svg role="img" xmlns="http://www.w3.org/2000/svg" xmlns:xlink="http://www.w3.org/1999/xlink" width="50" height="42" viewBox="0 0 50 42">
  <defs>
    <clipPath id="clip-path">
      <rect width="50" height="42" fill="currentColor"/>
    </clipPath>
  </defs>
  <g clip-path="url(#clip-path)">
    <path d="M28.226,10.082a1,1,0,0,0,1.381-.307l2.349-3.687a1,1,0,0,0-.376-1.421l-1.347-.713L31.9,1.574A1,1,0,0,0,30.262.426L27.944,3.733a1.01,1.01,0,0,0-.154.809,1,1,0,0,0,.5.649l1.392.737L27.919,8.7a1,1,0,0,0,.307,1.381" fill="currentColor"/>
    <path d="M33.807,9.835l-3.154,1.09a1,1,0,0,0,.326,1.945.975.975,0,0,0,.326-.055l4.173-1.441a1,1,0,0,0,.592-1.341L35.454,8.6l2.83-.841a1,1,0,0,0-.57-1.918L33.806,7.008a1,1,0,0,0-.633,1.354Z" fill="currentColor"/>
    <path d="M49.329,25.169v0a4.126,4.126,0,0,0-1.273-1.907A5.476,5.476,0,0,0,43.5,22.07l-3.124.554c-.155-2.3-.652-5.071-2.059-6.76a4.346,4.346,0,0,0-3.682-1.733,5.606,5.606,0,0,0-4.045,2.38A3.738,3.738,0,0,1,27.1,18.173a5.5,5.5,0,0,0-1.849.211,10.225,10.225,0,0,0,.535-5.284,4.3,4.3,0,0,0-2.522-3.154,5.632,5.632,0,0,0-4.709.375,3.782,3.782,0,0,1-3.879-.014,5.638,5.638,0,0,0-4.685-.361A4.294,4.294,0,0,0,7.466,13.1c-.7,2.892,1,6.873,2.077,8.989a2.925,2.925,0,0,1,.2.555L6.5,22.07a5.486,5.486,0,0,0-4.559,1.19A4.119,4.119,0,0,0,.672,25.168a17.177,17.177,0,0,0-.506,7.148C.948,37.928,4.662,42,9,42H41c4.335,0,8.049-4.072,8.831-9.684a17.19,17.19,0,0,0-.505-7.147m-22.58-5.01c.071,0,.14,0,.2.009a5.744,5.744,0,0,0,5.328-2.593,3.6,3.6,0,0,1,2.472-1.448,2.41,2.41,0,0,1,2.025,1.018c1.082,1.3,1.7,4.166,1.658,7.671a4.987,4.987,0,0,0,.587,2.408c.7,1.29,2.143,4.435,1.328,6.975a16.086,16.086,0,0,1-1.822-3.777,2.856,2.856,0,0,0-2.781-2.132h-.02a3.087,3.087,0,0,0-2.364,1.143,2.814,2.814,0,0,0-.028,3.512,16.12,16.12,0,0,1,1.884,3.717c-2.534-.933-4.155-4-4.756-5.334a5,5,0,0,0-1.554-1.934c-2.828-2.127-4.736-4.376-5.1-6.015a2.312,2.312,0,0,1,.416-2.169,3.616,3.616,0,0,1,2.529-1.051M9.409,13.57a2.353,2.353,0,0,1,1.35-1.778,2.877,2.877,0,0,1,1.105-.2,3.783,3.783,0,0,1,1.812.451,5.784,5.784,0,0,0,5.933-.021,3.626,3.626,0,0,1,2.882-.227,2.351,2.351,0,0,1,1.35,1.778c.4,1.632-.321,4.477-1.917,7.611a4.946,4.946,0,0,0-.538,2.417c.051,1.462-.045,4.92-1.91,6.851a15.87,15.87,0,0,1,.041-4.171,2.831,2.831,0,0,0-1.578-3.141,3.1,3.1,0,0,0-2.628,0,2.826,2.826,0,0,0-1.577,3.14,15.958,15.958,0,0,1,.041,4.171c-1.866-1.931-1.962-5.389-1.911-6.85a4.948,4.948,0,0,0-.538-2.418c-1.6-3.134-2.312-5.979-1.917-7.611M47.854,32.041C47.21,36.652,44.329,40,41,40H9c-3.326,0-6.207-3.348-6.851-7.959a15.161,15.161,0,0,1,.446-6.312,2.134,2.134,0,0,1,.673-.967,3.34,3.34,0,0,1,2.21-.783,3.932,3.932,0,0,1,.68.06l3.709.657c.067,2.369.632,5.691,3.024,7.653a1.709,1.709,0,0,0,2.768-1,17.03,17.03,0,0,0,.059-5.345c-.1-.734.182-.933.452-1.062a1.092,1.092,0,0,1,.915,0c.272.129.553.328.452,1.063a16.976,16.976,0,0,0,.062,5.346,1.708,1.708,0,0,0,2.766,1,8.923,8.923,0,0,0,2.858-5.727A22.181,22.181,0,0,0,27.7,30.991a3,3,0,0,1,.934,1.158c.948,2.1,3.068,5.757,6.622,6.613a1.766,1.766,0,0,0,.413.049,1.7,1.7,0,0,0,1.635-2.159,17.036,17.036,0,0,0-2.317-4.826c-.415-.615-.253-.913-.068-1.142a1.066,1.066,0,0,1,.817-.394h.01c.326,0,.656.1.881.767a17.1,17.1,0,0,0,2.424,4.774,1.709,1.709,0,0,0,2.925-.314c1.51-3.3-.1-7.208-1.2-9.242a2.95,2.95,0,0,1-.349-1.433c0-.063,0-.142,0-.208l3.412-.6a3.493,3.493,0,0,1,2.89.723,2.147,2.147,0,0,1,.675.969,15.2,15.2,0,0,1,.444,6.31" fill="currentColor"/>
  </g>
</svg>
