<svg role="img" xmlns="http://www.w3.org/2000/svg" viewBox="0 0 49 50">
  <defs>
    <style>
      .cls-1 {
        fill: currentColor;
      }
    </style>
  </defs>
  <g>
    <g>
      <path class="cls-1" d="M34.48,28.38c-.02-.66.12-1.33.43-1.93,1.89-3.77,3.95-9.12,3-13.15-.4-2.13-1.82-3.92-3.86-4.81-2.27-.82-4.79-.62-6.93.57-1.54.95-3.64.97-5.26-.02-2.11-1.17-4.62-1.37-6.95-.52-1.99.87-3.41,2.67-3.79,4.76-.97,4.03,1.09,9.39,2.99,13.17.3.6.45,1.27.43,1.93-.12,3.38.3,9.55,4.43,12.97,1.16.97,2.9.82,3.88-.34.31-.37.52-.82.6-1.29.44-2.56.47-5.19.09-7.79l-.03-.13c-.12-.43.08-.88.5-1.07.31-.15.7-.15,1.03,0,.4.19.61.63.49,1.07l-.03.13c-.38,2.61-.35,5.23.09,7.8.08.47.29.92.61,1.29.54.64,1.33.97,2.11.97.62,0,1.25-.21,1.77-.64,4.13-3.42,4.55-9.6,4.43-12.97ZM28.77,39.82c-.32.27-.8.23-1.07-.09-.08-.1-.14-.23-.16-.35-.4-2.34-.43-4.73-.09-7.11.35-1.36-.31-2.77-1.58-3.35-.85-.4-1.91-.4-2.73,0-1.28.59-1.95,1.99-1.59,3.36.34,2.38.31,4.77-.09,7.11-.02.12-.08.25-.16.34-.27.32-.75.36-1.07.09-3.47-2.88-3.81-8.35-3.71-11.36.04-1-.19-2-.64-2.9-1.43-2.85-3.7-8.18-2.82-11.86.27-1.49,1.26-2.74,2.58-3.32,1.73-.63,3.64-.47,5.2.39,2.17,1.33,5.18,1.31,7.28.02,1.61-.89,3.52-1.04,5.18-.44,1.38.6,2.36,1.85,2.64,3.34v.05c.88,3.63-1.39,8.96-2.82,11.81-.46.9-.68,1.9-.64,2.9.11,3.01-.24,8.49-3.71,11.37Z"/>
      <path class="cls-1" d="M1,17c.55,0,1-.45,1-1V2h14c.55,0,1-.45,1-1s-.45-1-1-1H1C.45,0,0,.45,0,1v15c0,.55.45,1,1,1Z"/>
      <path class="cls-1" d="M16,48H2v-14c0-.55-.45-1-1-1s-1,.45-1,1v15c0,.55.45,1,1,1h15c.55,0,1-.45,1-1s-.45-1-1-1Z"/>
      <path class="cls-1" d="M48,0h-15c-.55,0-1,.45-1,1s.45,1,1,1h14v14c0,.55.45,1,1,1s1-.45,1-1V1c0-.55-.45-1-1-1Z"/>
      <path class="cls-1" d="M48,33c-.55,0-1,.45-1,1v14h-14c-.55,0-1,.45-1,1s.45,1,1,1h15c.55,0,1-.45,1-1v-15c0-.55-.45-1-1-1Z"/>
    </g>
  </g>
</svg>